# xmcd
# 
# Track frame offsets:
#     150
#     11679
#     22627
#     33295
#     44699
#     57412
#     68748
#     80739
#     93898
#     106129
#     120528
#     132745
#     141153
#     152914
#     166145
#     178230
#     188332
#     201432
#     214140
#     220419
#     232055
#     242059
#     256011
#     268006
#     280574
# 
# Disc length: 3917
# 
# Revision: 5
# Processed by: cddbd v1.5.2PL0 Copyright (c) Steve Scherf et al.
# Submitted via: fre:ac v1.0.31
# 
DISCID=660f4b19
DTITLE=Various Artist - As Good As It Gets - Cajun [CD 1)
DYEAR=2000
DGENRE=Folk
TTITLE0=Cajun Born - Cajun Cool
TTITLE1=Lawrence Walker - Mamou Two Step
TTITLE2=Balfa Brothers - La Danse De Mardi Gras
TTITLE3=Cleveland Crochet - Sugar Bee
TTITLE4=Iry Lejeune - Convict Waltz
TTITLE5=Dic Guidry and Lawrence Walker - Crowley Two Step
TTITLE6=Happy Fats and His Rayne-bo Ramblers Featuring H arry Choates - Gran Prairie
TTITLE7=Joe Falcon - Allons Á Lafayette
TTITLE8=Harry Choates - Jolie Blon
TTITLE9=Lawrence Walker - Reno Waltz
TTITLE10=Iry Lejeune - Lacassine Special
TTITLE11=Aldus Roger - Creole Stomp
TTITLE12=Happy Fats - Les Veuves De La Coulee
TTITLE13=Nathan Abshire - Pine Grove Blues
TTITLE14=Belton Richard - Un Autre Soir D'Ennui
TTITLE15=Alex Broussard - Le Sud De La Louisianne
TTITLE16=Cleoma B. Falcon - Prend Donc Courage
TTITLE17=Aldus Roger - Johnny Can't Dance
TTITLE18=Jimmy C. Newman - La Valse De Tolom
TTITLE19=Cajun Born - Ma Belle Evangeline
TTITLE20=D.L.Menard With Badeaux and The Loauisiana Aces - The Back Door
TTITLE21=Camey Doucet - Mom, I'm Still Your Little Boy
TTITLE22=Leroy Broussard - The Lemonade Song
TTITLE23=Aldus Roger - Diga Ding Ding Dong
TTITLE24=Papa Cairo - Big Texas
EXTD=DISKY. DO 250552. Printed in EU.
EXTT0=
EXTT1=Vocals Warren Storm
EXTT2=
EXTT3=
EXTT4=
EXTT5=
EXTT6=
EXTT7=
EXTT8=
EXTT9=
EXTT10=
EXTT11=
EXTT12=
EXTT13=
EXTT14=
EXTT15=
EXTT16=
EXTT17=
EXTT18=
EXTT19=
EXTT20=Vocals Johnnie Allan
EXTT21=
EXTT22=
EXTT23=
EXTT24=
PLAYORDER=
